ply
format ascii 1.0
comment An example disk ply file
element vertex 200
property float64 x
property float64 y
property float64 z
element face 1
property list uint8 int32 vertex_indices
end_header
0.0	10.0	0.0
0.0	9.995065603657316	0.3141075907812829
0.0	9.980267284282716	0.6279051952931337
0.0	9.9556196460308	0.9410831331851433
0.0	9.921147013144779	1.2533323356430426
0.0	9.876883405951379	1.5643446504023086
0.0	9.822872507286887	1.8738131458572462
0.0	9.759167619387474	2.1814324139654255
0.0	9.68583161128631	2.486898871648548
0.0	9.60293685676943	2.789911060392293
0.0	9.510565162951535	3.090169943749474
0.0	9.408807689542254	3.387379202452914
0.0	9.297764858882514	3.6812455268467796
0.0	9.177546256839811	3.971478906347806
0.0	9.048270524660195	4.257792915650727
0.0	8.910065241883679	4.539904997395468
0.0	8.763066800438637	4.817536741017153
0.0	8.607420270039437	5.090414157503713
0.0	8.443279255020151	5.358267949789966
0.0	8.270805742745619	5.620833778521305
0.0	8.090169943749475	5.877852522924732
0.0	7.901550123756904	6.129070536529765
0.0	7.705132427757891	6.3742398974868975
0.0	7.501110696304595	6.613118653236518
0.0	7.289686274214116	6.845471059286887
0.0	7.071067811865475	7.0710678118654755
0.0	6.845471059286887	7.289686274214116
0.0	6.613118653236518	7.501110696304596
0.0	6.374239897486897	7.705132427757892
0.0	6.129070536529765	7.901550123756904
0.0	5.87785252292473	8.090169943749475
0.0	5.620833778521305	8.270805742745619
0.0	5.3582679497899655	8.443279255020151
0.0	5.090414157503712	8.607420270039437
0.0	4.817536741017151	8.763066800438637
0.0	4.539904997395468	8.910065241883679
0.0	4.257792915650727	9.048270524660197
0.0	3.9714789063478055	9.177546256839811
0.0	3.6812455268467787	9.297764858882514
0.0	3.3873792024529124	9.408807689542256
0.0	3.0901699437494745	9.510565162951535
0.0	2.789911060392293	9.60293685676943
0.0	2.486898871648547	9.68583161128631
0.0	2.1814324139654246	9.759167619387474
0.0	1.8738131458572451	9.822872507286887
0.0	1.564344650402307	9.876883405951379
0.0	1.2533323356430426	9.921147013144779
0.0	0.9410831331851428	9.9556196460308
0.0	0.627905195293133	9.980267284282716
0.0	0.31410759078128175	9.995065603657316
0.0	-1.6081226496766366e-15	10.0
0.0	-0.3141075907812828	9.995065603657316
0.0	-0.627905195293134	9.980267284282716
0.0	-0.9410831331851438	9.9556196460308
0.0	-1.2533323356430437	9.921147013144777
0.0	-1.5643446504023104	9.876883405951377
0.0	-1.8738131458572482	9.822872507286887
0.0	-2.1814324139654255	9.759167619387474
0.0	-2.4868988716485485	9.68583161128631
0.0	-2.7899110603922934	9.60293685676943
0.0	-3.0901699437494754	9.510565162951535
0.0	-3.3873792024529155	9.408807689542254
0.0	-3.6812455268467796	9.297764858882514
0.0	-3.971478906347807	9.177546256839811
0.0	-4.257792915650727	9.048270524660195
0.0	-4.5399049973954675	8.910065241883679
0.0	-4.817536741017154	8.763066800438635
0.0	-5.090414157503713	8.607420270039437
0.0	-5.358267949789969	8.44327925502015
0.0	-5.620833778521307	8.270805742745617
0.0	-5.87785252292473	8.090169943749475
0.0	-6.129070536529766	7.901550123756903
0.0	-6.3742398974868975	7.705132427757892
0.0	-6.613118653236521	7.501110696304593
0.0	-6.845471059286887	7.289686274214114
0.0	-7.071067811865475	7.0710678118654755
0.0	-7.289686274214117	6.845471059286885
0.0	-7.501110696304595	6.613118653236518
0.0	-7.705132427757894	6.374239897486895
0.0	-7.901550123756904	6.129070536529763
0.0	-8.090169943749473	5.877852522924733
0.0	-8.270805742745619	5.6208337785213045
0.0	-8.443279255020151	5.358267949789966
0.0	-8.607420270039437	5.0904141575037105
0.0	-8.763066800438637	4.817536741017152
0.0	-8.91006524188368	4.539904997395465
0.0	-9.048270524660197	4.257792915650725
0.0	-9.177546256839811	3.971478906347806
0.0	-9.297764858882514	3.6812455268467774
0.0	-9.408807689542254	3.3873792024529132
0.0	-9.510565162951536	3.090169943749471
0.0	-9.60293685676943	2.789911060392291
0.0	-9.68583161128631	2.486898871648548
0.0	-9.759167619387474	2.1814324139654233
0.0	-9.822872507286887	1.8738131458572458
0.0	-9.876883405951379	1.5643446504023053
0.0	-9.921147013144779	1.2533323356430408
0.0	-9.9556196460308	0.9410831331851435
0.0	-9.980267284282716	0.6279051952931314
0.0	-9.995065603657316	0.31410759078128236
0.0	-10.0	-3.216245299353273e-15
0.0	-9.995065603657316	-0.31410759078128436
0.0	-9.980267284282716	-0.6279051952931335
0.0	-9.9556196460308	-0.9410831331851455
0.0	-9.921147013144779	-1.2533323356430428
0.0	-9.876883405951377	-1.5643446504023117
0.0	-9.822872507286887	-1.8738131458572478
0.0	-9.759167619387474	-2.181432413965425
0.0	-9.68583161128631	-2.4868988716485503
0.0	-9.60293685676943	-2.789911060392293
0.0	-9.510565162951535	-3.090169943749477
0.0	-9.408807689542254	-3.387379202452915
0.0	-9.297764858882513	-3.681245526846783
0.0	-9.177546256839811	-3.9714789063478078
0.0	-9.048270524660195	-4.257792915650727
0.0	-8.910065241883677	-4.539904997395471
0.0	-8.763066800438637	-4.817536741017154
0.0	-8.607420270039434	-5.090414157503717
0.0	-8.44327925502015	-5.358267949789967
0.0	-8.270805742745619	-5.620833778521305
0.0	-8.090169943749473	-5.877852522924734
0.0	-7.901550123756903	-6.129070536529766
0.0	-7.70513242775789	-6.3742398974869
0.0	-7.501110696304593	-6.613118653236521
0.0	-7.289686274214116	-6.845471059286887
0.0	-7.071067811865474	-7.071067811865477
0.0	-6.845471059286886	-7.289686274214116
0.0	-6.613118653236516	-7.501110696304599
0.0	-6.374239897486895	-7.705132427757894
0.0	-6.129070536529765	-7.901550123756904
0.0	-5.877852522924733	-8.090169943749473
0.0	-5.620833778521302	-8.270805742745623
0.0	-5.358267949789964	-8.443279255020153
0.0	-5.0904141575037105	-8.607420270039437
0.0	-4.817536741017153	-8.763066800438637
0.0	-4.539904997395469	-8.910065241883679
0.0	-4.257792915650722	-9.048270524660198
0.0	-3.971478906347803	-9.177546256839813
0.0	-3.6812455268467783	-9.297764858882514
0.0	-3.3873792024529137	-9.408807689542254
0.0	-3.0901699437494754	-9.510565162951535
0.0	-2.789911060392287	-9.602936856769432
0.0	-2.4868988716485445	-9.685831611286313
0.0	-2.1814324139654238	-9.759167619387474
0.0	-1.8738131458572462	-9.822872507286887
0.0	-1.5643446504023104	-9.876883405951377
0.0	-1.2533323356430373	-9.921147013144779
0.0	-0.9410831331851397	-9.9556196460308
0.0	-0.627905195293132	-9.980267284282716
0.0	-0.314107590781283	-9.995065603657316
0.0	-1.8369701987210296e-15	-10.0
0.0	0.3141075907812882	-9.995065603657315
0.0	0.6279051952931372	-9.980267284282716
0.0	0.9410831331851449	-9.9556196460308
0.0	1.2533323356430424	-9.921147013144779
0.0	1.5643446504023069	-9.876883405951379
0.0	1.8738131458572513	-9.822872507286887
0.0	2.181432413965429	-9.759167619387473
0.0	2.4868988716485494	-9.68583161128631
0.0	2.789911060392292	-9.60293685676943
0.0	3.0901699437494723	-9.510565162951536
0.0	3.3873792024529186	-9.408807689542254
0.0	3.6812455268467827	-9.297764858882513
0.0	3.9714789063478073	-9.177546256839811
0.0	4.257792915650726	-9.048270524660197
0.0	4.539904997395475	-8.910065241883675
0.0	4.8175367410171575	-8.763066800438633
0.0	5.090414157503716	-8.607420270039434
0.0	5.358267949789967	-8.44327925502015
0.0	5.620833778521305	-8.270805742745619
0.0	5.877852522924737	-8.09016994374947
0.0	6.1290705365297695	-7.901550123756901
0.0	6.3742398974869	-7.70513242775789
0.0	6.613118653236519	-7.501110696304595
0.0	6.845471059286886	-7.289686274214116
0.0	7.07106781186548	-7.07106781186547
0.0	7.289686274214119	-6.845471059286883
0.0	7.501110696304599	-6.613118653236516
0.0	7.705132427757894	-6.374239897486897
0.0	7.901550123756903	-6.129070536529765
0.0	8.090169943749478	-5.877852522924726
0.0	8.27080574274562	-5.620833778521302
0.0	8.443279255020151	-5.358267949789964
0.0	8.607420270039437	-5.090414157503712
0.0	8.763066800438637	-4.817536741017153
0.0	8.91006524188368	-4.539904997395462
0.0	9.048270524660197	-4.257792915650722
0.0	9.177546256839813	-3.9714789063478033
0.0	9.297764858882514	-3.6812455268467787
0.0	9.408807689542254	-3.387379202452914
0.0	9.510565162951538	-3.090169943749468
0.0	9.602936856769432	-2.7899110603922876
0.0	9.685831611286313	-2.486898871648545
0.0	9.759167619387474	-2.181432413965424
0.0	9.822872507286887	-1.873813145857247
0.0	9.876883405951379	-1.5643446504023024
0.0	9.921147013144779	-1.253332335643038
0.0	9.9556196460308	-0.9410831331851404
0.0	9.980267284282716	-0.6279051952931326
0.0	9.995065603657316	-0.3141075907812836
200 0 1 2 3 4 5 6 7 8 9 10 11 12 13 14 15 16 17 18 19 20 21 22 23 24 25 26 27 28 29 30 31 32 33 34 35 36 37 38 39 40 41 42 43 44 45 46 47 48 49 50 51 52 53 54 55 56 57 58 59 60 61 62 63 64 65 66 67 68 69 70 71 72 73 74 75 76 77 78 79 80 81 82 83 84 85 86 87 88 89 90 91 92 93 94 95 96 97 98 99 100 101 102 103 104 105 106 107 108 109 110 111 112 113 114 115 116 117 118 119 120 121 122 123 124 125 126 127 128 129 130 131 132 133 134 135 136 137 138 139 140 141 142 143 144 145 146 147 148 149 150 151 152 153 154 155 156 157 158 159 160 161 162 163 164 165 166 167 168 169 170 171 172 173 174 175 176 177 178 179 180 181 182 183 184 185 186 187 188 189 190 191 192 193 194 195 196 197 198 199
